# xmcd
#
# Track frame offsets:
# 150
# 14978
# 34017
# 53205
# 69478
# 87597
# 104417
# 120202
# 137025
# 154388
# 166248
# 184360
# 202911
# 222314
#
# Disc length: 3184 seconds
#
#
# Revision: 0
# Processed by: cddbd v1.5.2PL0 Copyright (c) Steve Scherf et al.
# Submitted via: FreeRIP 2.95 
#
DISCID=cb0c6e0e
DTITLE=Leandro and Leonardo - Seleção de Sucessos-Leandro and Leonardo de 1993 a 1995
DYEAR=2005
DGENRE=Sertanejo
TTITLE0=Mexe Mexe
TTITLE1=Dor de Amor Não Tem Jeito
TTITLE2=Eu Juro
TTITLE3=Bobo
TTITLE4=Em Nome do Amor
TTITLE5=A Vida Tem Dessas Coisas
TTITLE6=Mulher Brasileira
TTITLE7=Diz Pra Mim
TTITLE8=Índia
TTITLE9=Entre Um Gole e Outro
TTITLE10=Festa de Rodeio
TTITLE11=Outra Chance
TTITLE12=Quero Ser Seu Dono
TTITLE13=Diz Que Me Ama
EXTD=by Magno
EXTT0=
EXTT1=
EXTT2=
EXTT3=
EXTT4=
EXTT5=
EXTT6=
EXTT7=
EXTT8=
EXTT9=
EXTT10=
EXTT11=
EXTT12=
EXTT13=
PLAYORDER=
